<?xml version="1.0" encoding="UTF-8" standalone="no"?>
<svg
   viewBox="0 0 294.77842 124.23"
   version="1.1"
   id="svg3"
   width="294.77841"
   height="124.23"
   xmlns="http://www.w3.org/2000/svg"
   xmlns:svg="http://www.w3.org/2000/svg"
   xmlns:rdf="http://www.w3.org/1999/02/22-rdf-syntax-ns#"
   xmlns:cc="http://creativecommons.org/ns#"
   xmlns:dc="http://purl.org/dc/elements/1.1/">
  <defs
     id="defs1">
    <style
       id="style1">.cls-1{fill:#2d2a70;}.cls-2{fill:#ed6b23;}</style>
  </defs>
  <title
     id="title1">Logo KAI Baru</title>
  <g
     id="Layer_1-2"
     style="display:inline"
     transform="translate(0.03840572)">
    <path
       class="cls-1"
       d="m 99.58,124.22 h 28.56 l -6.55,-10.77 z M 116.25,104.69 86.56,55.91 144.12,0 H 98.65 C 95.085365,-0.00194375 91.661391,1.3906161 89.11,3.88 L 48.79,43.28 53.33,0 H 12.27 L 0,116.81 c -0.42217635,3.96744 2.6901634,7.42456 6.68,7.42 h 33.6 L 43.07,98 55.45,86 77.23,120.43 c 1.49091,2.35405 4.08354,3.78056 6.87,3.78 h 15.48 l 7.81,-15.57 z"
       id="path1" />
    <path
       class="cls-2"
       d="m 141,124.22 55.61,-33.81 7.08,28.71 c 0.73702,3.0017 3.42914,5.11164 6.52,5.11 h 36 L 230.13,70 l 61.24,-37.24 0.26,-2.5 -192,93.95 z M 224.38,50.57 209.37,0 H 174 c -7.38577,-3.7512297e-4 -14.13927,4.1678265 -17.45,10.77 L 106,111.37 292,26.52 292.29,23.67 Z M 164.6,74.24 177,48 l 3.27,-7.25 c 0.87549,-1.915262 3.67336,-1.661517 4.19,0.38 l 5.67,23 z"
       id="path2" />
    <path
       class="cls-1"
       d="m 269.53,0 c -9.99311,0.00212827 -18.37076,7.5510762 -19.41,17.49 l -2.5,23.88 44.69,-17.7 L 294.74,0 Z m -30.6,124.22 h 43 l 9.42,-91.45 -45.75,27.84 z"
       id="path3" />
  </g>
  <metadata
     id="metadata1">
    <rdf:RDF>
      <cc:Work
         rdf:about="">
        <dc:title>Logo KAI Baru</dc:title>
      </cc:Work>
    </rdf:RDF>
  </metadata>
</svg>
